<?xml version="1.0" encoding="UTF-8"?>
<svg version="1.1" xmlns="http://www.w3.org/2000/svg" width="948" height="622">
<path d="M0 0 C312.84 0 625.68 0 948 0 C948 205.26 948 410.52 948 622 C635.16 622 322.32 622 0 622 C0 416.74 0 211.48 0 0 Z " fill="#FEFEFE" transform="translate(0,0)"/>
<path d="M0 0 C2.27734375 1.98828125 2.27734375 1.98828125 4 4 C4 4.99 4 5.98 4 7 C1.03 6.67 -1.94 6.34 -5 6 C-3.42077898 9.15844205 -2.23034776 10.84817988 0.75 12.8125 C4.88599725 15.5963443 8.05732136 18.97775879 11 23 C11 23.66 11 24.32 11 25 C10.01 25.495 10.01 25.495 9 26 C10.98 28.475 10.98 28.475 13 31 C10.03 30.34 7.06 29.68 4 29 C4.65226563 29.75023437 5.30453125 30.50046875 5.9765625 31.2734375 C20.32130376 47.97328553 20.32130376 47.97328553 20.375 55.625 C20.25125 56.73875 20.1275 57.8525 20 59 C18.1875 59.6875 18.1875 59.6875 16 60 C12.11577196 57.60970582 12.33848872 54.68471053 11 50 C11 58.25 11 66.5 11 75 C10.34 75 9.68 75 9 75 C8.82984375 74.18015625 8.6596875 73.3603125 8.484375 72.515625 C8.12085938 70.89914063 8.12085938 70.89914063 7.75 69.25 C7.40195312 67.64898437 7.40195312 67.64898437 7.046875 66.015625 C5.889702 62.6822759 4.728867 61.19439964 2 59 C1.030625 58.690625 0.06125 58.38125 -0.9375 58.0625 C-6.3890059 56.17116122 -8.81953882 52.50694281 -11.375 47.5625 C-13.85291383 42.9802655 -16.38560381 39.56169915 -21 37 C-24.06188384 36.10949195 -27.12549178 35.43739721 -30.24609375 34.78515625 C-34.10976273 33.68359956 -35.59929105 32.14575655 -38 29 C-40.80010967 26.19989033 -48.34959944 27.38651288 -52.07568359 27.32055664 C-63.75168794 27.50508351 -73.87176794 31.54192384 -84.50244141 36.06030273 C-86.99487046 36.99807003 -89.37893661 37.55375529 -92 38 C-89.57542028 35.31765765 -86.92489603 33.63143275 -83.8125 31.8125 C-82.91144531 31.28269531 -82.01039063 30.75289062 -81.08203125 30.20703125 C-80.39496094 29.80871094 -79.70789063 29.41039062 -79 29 C-92.40807042 32.95585624 -109.29490391 38.35552081 -118 50 C-120.12725065 54.57307508 -121.6571011 59.1319915 -123 64 C-123.26611084 64.9288501 -123.26611084 64.9288501 -123.53759766 65.87646484 C-127.0941714 82.20966358 -123.94109995 98.4590206 -115.1875 112.375 C-103.47221807 128.83322257 -87.58765707 136.80748996 -68.09765625 140.55859375 C-51.84654807 142.87432543 -37.40301315 139.90731161 -24.0390625 130.2578125 C-23.36617187 129.84273437 -22.69328125 129.42765625 -22 129 C-21.34 129.33 -20.68 129.66 -20 130 C-21.66666667 131.66666667 -23.33333333 133.33333333 -25 135 C-25.804375 135.825 -26.60875 136.65 -27.4375 137.5 C-35.39389727 145.2623388 -42.00220849 148.41756244 -53 149 C-53.91007812 149.06445312 -54.82015625 149.12890625 -55.7578125 149.1953125 C-80.29985746 150.13682318 -100.67994173 139.40974987 -121 127 C-121.66 126.67 -122.32 126.34 -123 126 C-111.50915835 142.09478814 -96.10621097 152.29000158 -77 157 C-72.99320494 157.58044382 -69.04676247 157.91710542 -65 158 C-65 158.99 -65 159.98 -65 161 C-76.1248717 162.12498703 -89.09032793 159.23640031 -99 154 C-98.01 155.98 -98.01 155.98 -97 158 C-107.40736158 155.18719957 -115.93922765 148.91105839 -124 142 C-124.82371094 141.33355469 -125.64742188 140.66710937 -126.49609375 139.98046875 C-137.16326649 131.01072443 -144.31825606 119.61069997 -150 107 C-150.66 108.32 -151.32 109.64 -152 111 C-152.98678898 108.14827038 -153.96456818 105.29395658 -154.9375 102.4375 C-155.21529297 101.63763672 -155.49308594 100.83777344 -155.77929688 100.01367188 C-163.51521049 77.17874615 -158.16382892 53.14030632 -148 32 C-137.34795824 10.97921547 -118.23118376 -4.58101863 -96 -12 C-64.95952586 -21.38512248 -27.49475172 -19.46023224 0 0 Z " fill="#EC7936" transform="translate(548,85)"/>
<path d="M0 0 C1.1943869 -0.00788544 1.1943869 -0.00788544 2.41290283 -0.01593018 C5.02099769 -0.02903452 7.62847219 -0.02042554 10.23657227 -0.01025391 C12.06445939 -0.01227759 13.89234572 -0.01519149 15.7202301 -0.01895142 C19.54224368 -0.02336199 23.36404621 -0.01698538 27.18603516 -0.00292969 C32.06593632 0.01414925 36.94534192 0.00432114 41.82522488 -0.01364708 C45.59751565 -0.0245296 49.36969052 -0.02101794 53.14198494 -0.0132637 C54.94038007 -0.0112734 56.73878598 -0.01367951 58.5371685 -0.02070236 C80.56853943 -0.08786131 80.56853943 -0.08786131 88.92797852 7.45068359 C89.72848633 8.14291016 90.52899414 8.83513672 91.35375977 9.54833984 C98.2425826 18.19803622 98.24868983 27.4482963 98.13696289 38.02905273 C98.11548539 40.44990838 98.13685886 42.8678077 98.16235352 45.28857422 C98.18143689 55.44831251 97.33380138 63.80212345 90.36547852 71.70068359 C89.84469727 72.31556641 89.32391602 72.93044922 88.78735352 73.56396484 C80.92184724 80.17042425 72.9101637 80.03927062 63.11547852 80.13818359 C61.70658835 80.16638733 60.2977317 80.19632082 58.88891602 80.22802734 C55.46437975 80.29839453 52.04051147 80.35125945 48.61547852 80.38818359 C49.19177002 80.78908203 49.76806152 81.18998047 50.36181641 81.60302734 C51.17900146 82.17150391 51.99618652 82.73998047 52.83813477 83.32568359 C53.75747803 83.96521973 54.67682129 84.60475586 55.62402344 85.26367188 C57.68801473 86.69950625 59.75197887 88.13537967 61.81591797 89.57128906 C67.06358881 93.22208418 72.31161218 96.87236928 77.56079102 100.52099609 C82.30278264 103.81714125 87.04243398 107.11663418 91.78149414 110.41699219 C94.68733178 112.43816148 97.59659186 114.45433891 100.50610352 116.47021484 C102.35514942 117.7552451 104.20411135 119.04039619 106.05297852 120.32568359 C107.35078247 121.222146 107.35078247 121.222146 108.67480469 122.13671875 C109.45831299 122.68247559 110.24182129 123.22823242 111.04907227 123.79052734 C111.74057373 124.26997803 112.4320752 124.74942871 113.14453125 125.2434082 C113.62994385 125.62118408 114.11535645 125.99895996 114.61547852 126.38818359 C114.61547852 126.71818359 114.61547852 127.04818359 114.61547852 127.38818359 C108.69314349 127.53765041 102.77193065 127.64592352 96.84814453 127.71777344 C94.83753306 127.7477561 92.82705025 127.78855725 90.81689453 127.84082031 C69.60128951 128.37819099 69.60128951 128.37819099 60.61547852 121.38818359 C59.98150146 120.9540918 59.34752441 120.52 58.69433594 120.07275391 C56.95729664 118.87327245 55.28681233 117.61473253 53.61547852 116.32568359 C47.98231474 112.09258156 42.25796057 108.03330643 36.42797852 104.07568359 C29.47767828 99.35204701 22.56161366 94.5835491 15.67797852 89.76318359 C14.83146729 89.17110107 13.98495605 88.57901855 13.11279297 87.96899414 C8.62886118 84.82536061 8.62886118 84.82536061 6.61547852 83.38818359 C5.88127686 82.90945801 5.1470752 82.43073242 4.390625 81.9375 C2.61547852 80.38818359 2.61547852 80.38818359 2.11547852 76.70068359 C2.53275294 69.35126948 6.39854123 64.18914097 11.34594727 59.02880859 C18.55301352 53.81888118 25.2637983 52.81794124 33.99438477 52.99755859 C35.04706039 53.00321838 36.09973602 53.00887817 37.18431091 53.01470947 C40.51601425 53.03693476 43.84660531 53.08710591 47.17797852 53.13818359 C49.44944726 53.15826645 51.72093301 53.17651408 53.99243164 53.19287109 C59.53421088 53.23333681 65.07361339 53.31165611 70.61547852 53.38818359 C70.61547852 44.80818359 70.61547852 36.22818359 70.61547852 27.38818359 C46.19547852 27.38818359 21.77547852 27.38818359 -3.38452148 27.38818359 C-3.22669745 44.38038702 -3.22669745 44.38038702 -3.02416992 61.37207031 C-3.01247475 63.52066244 -3.0022849 65.66926351 -2.99389648 67.81787109 C-2.97343262 68.91107666 -2.95296875 70.00428223 -2.93188477 71.13061523 C-2.92789246 80.00750071 -4.55699461 87.45208971 -10.50952148 94.26318359 C-15.89414747 99.17201289 -22.16437701 101.50904482 -29.38452148 101.38818359 C-29.50065268 90.85226686 -29.58935699 80.31650377 -29.64358234 69.78007603 C-29.66961518 64.88692592 -29.70489722 59.99421548 -29.76171875 55.10131836 C-29.81626461 50.37450307 -29.84598946 45.64810921 -29.8589077 40.92100334 C-29.86810722 39.12254139 -29.88607169 37.32410107 -29.91317177 35.52581978 C-30.07317339 24.46310507 -29.85383268 16.829089 -22.42749023 8.08349609 C-21.81518555 7.56529297 -21.20288086 7.04708984 -20.57202148 6.51318359 C-19.96745117 5.97951172 -19.36288086 5.44583984 -18.73999023 4.89599609 C-12.69369366 1.02556412 -7.01165034 -0.05807288 0 0 Z " fill="#131313" transform="translate(429.384521484375,394.61181640625)"/>
<path d="M0 0 C1.20079193 0.00015106 2.40158386 0.00030212 3.63876343 0.00045776 C5.560952 0.01594162 5.560952 0.01594162 7.52197266 0.03173828 C8.8586099 0.03547289 10.1952499 0.03831774 11.53189087 0.04031372 C15.03358648 0.04791501 18.53511366 0.0675329 22.03674316 0.08972168 C25.61643191 0.11025604 29.19614812 0.1193316 32.77587891 0.12939453 C39.78766642 0.15078249 46.79934268 0.18487562 53.81103516 0.22705078 C53.92846059 7.97261326 52.22915302 12.52289795 46.94384766 18.25048828 C33.09799591 31.01884184 20.64569102 26.22705078 -0.18896484 26.22705078 C-0.18896484 50.64705078 -0.18896484 75.06705078 -0.18896484 100.22705078 C24.56103516 100.22705078 49.31103516 100.22705078 74.81103516 100.22705078 C74.81103516 75.80705078 74.81103516 51.38705078 74.81103516 26.22705078 C67.88103516 26.22705078 60.95103516 26.22705078 53.81103516 26.22705078 C53.81103516 17.76259798 54.21179174 14.02774438 59.90478516 8.01611328 C65.98280246 2.4040773 70.21541953 -0.04251411 78.64306641 0.03173828 C80.58149414 0.04140625 80.58149414 0.04140625 82.55908203 0.05126953 C83.91390246 0.06797751 85.26872017 0.08490737 86.62353516 0.10205078 C87.99787767 0.11209075 89.37222719 0.12121482 90.74658203 0.12939453 C94.10157832 0.15293836 97.45621715 0.18582511 100.81103516 0.22705078 C100.92708412 13.87493551 101.01582973 27.52270209 101.07009602 41.17098045 C101.09614629 47.50902153 101.13146185 53.84672405 101.18823242 60.18457031 C101.24271365 66.30540909 101.27249005 72.42592301 101.28542137 78.54698563 C101.29463223 80.8777032 101.31261888 83.20840378 101.33968544 85.53898239 C101.37618861 88.81348299 101.38097145 92.08665554 101.37866211 95.36132812 C101.39663849 96.31655365 101.41461487 97.27177917 101.43313599 98.25595093 C101.36075437 107.79314383 97.54225517 114.99378492 90.94775391 121.75439453 C84.94928903 125.88861986 78.92508138 126.67315263 71.85986328 126.64697266 C71.00347763 126.6554422 70.14709198 126.66391174 69.26475525 126.67263794 C66.45711077 126.69587995 63.65001822 126.69703334 60.84228516 126.69580078 C58.8774799 126.70290883 56.91267671 126.71060876 54.94787598 126.71887207 C50.8392153 126.73228656 46.7307467 126.73389872 42.62207031 126.72802734 C37.36970175 126.72212661 32.11825604 126.7527527 26.86606598 126.79314423 C22.81157508 126.8190497 18.75730578 126.82189619 14.70274353 126.81825256 C12.7667356 126.81994036 10.83071706 126.82955001 8.89479065 126.84739685 C6.18330791 126.86964924 3.47368595 126.85985438 0.76220703 126.84228516 C-0.02867813 126.8555484 -0.81956329 126.86881165 -1.63441467 126.88247681 C-8.90819422 126.77352209 -13.3750001 123.5174872 -18.87646484 119.03955078 C-27.23508931 108.87365616 -26.91666218 99.07880204 -26.81787109 86.50048828 C-26.81870105 84.58338283 -26.82116519 82.66627745 -26.82518005 80.74917603 C-26.82802739 76.74646388 -26.81343857 72.74431461 -26.78588867 68.74169922 C-26.75176157 63.62619958 -26.75784971 58.51170246 -26.77655125 53.3961544 C-26.7871466 49.44285812 -26.77816116 45.48979292 -26.76316643 41.5365181 C-26.75800589 39.65078036 -26.75844041 37.76501828 -26.76471138 35.87928391 C-26.77019628 33.23996241 -26.74968667 30.60205113 -26.72241211 27.96289062 C-26.72893799 27.19384903 -26.73546387 26.42480743 -26.7421875 25.63246155 C-26.62173823 18.73577573 -24.31376695 13.62426341 -19.75146484 8.47705078 C-18.48302734 7.36330078 -18.48302734 7.36330078 -17.18896484 6.22705078 C-15.98240234 5.14423828 -15.98240234 5.14423828 -14.75146484 4.03955078 C-10.09468363 0.74572992 -5.6235175 -0.02372792 0 0 Z " fill="#121212" transform="translate(281.18896484375,395.77294921875)"/>
<path d="M0 0 C6.55197836 5.64611771 10.47314753 12.62400494 14.5625 20.15234375 C15.80186968 22.39985742 17.04145914 24.64724989 18.28125 26.89453125 C19.22291016 28.6110791 19.22291016 28.6110791 20.18359375 30.36230469 C23.1119891 35.6848611 26.08826989 40.9803096 29.0625 46.27734375 C30.21641441 48.33708914 31.37005878 50.39698584 32.5234375 52.45703125 C33.09932617 53.48538086 33.67521484 54.51373047 34.26855469 55.57324219 C36.15091287 58.93525482 38.03254812 62.29767133 39.9140625 65.66015625 C40.54570313 66.78873047 41.17734375 67.91730469 41.828125 69.08007812 C43.03410715 71.23488447 44.23985084 73.38982431 45.4453125 75.54492188 C46.26515625 77.00961914 46.26515625 77.00961914 47.1015625 78.50390625 C47.61106445 79.41688477 48.12056641 80.32986328 48.64550781 81.27050781 C49.88715591 83.46713818 51.1685191 85.63391325 52.4609375 87.80078125 C54.0625 90.77734375 54.0625 90.77734375 54.0625 93.77734375 C47.8501867 97.16587828 42.0727811 97.62171934 35.0625 96.77734375 C31.875 95.33984375 31.875 95.33984375 29.0625 92.77734375 C28.36640625 92.15601563 27.6703125 91.5346875 26.953125 90.89453125 C17.63017549 82.16599798 11.95585322 71.00420299 5.875 59.90234375 C4.56850335 57.53139215 3.25901062 55.16210123 1.94921875 52.79296875 C1.6241333 52.2043808 1.29904785 51.61579285 0.96411133 51.0093689 C-2.24949421 45.19779145 -5.51918937 39.41904527 -8.8125 33.65234375 C-9.3180542 32.76434082 -9.8236084 31.87633789 -10.34448242 30.96142578 C-11.03634644 29.75268799 -11.03634644 29.75268799 -11.7421875 28.51953125 C-12.14421387 27.81683105 -12.54624023 27.11413086 -12.96044922 26.39013672 C-13.83740071 24.79797721 -13.83740071 24.79797721 -14.9375 23.77734375 C-15.32381592 24.5051001 -15.71013184 25.23285645 -16.1081543 25.98266602 C-23.26706588 39.4517359 -30.48808935 52.86127862 -38.07958984 66.09301758 C-41.0304787 71.27765962 -43.8642367 76.50786554 -46.578125 81.8203125 C-46.88519882 82.42029556 -47.19227264 83.02027863 -47.50865173 83.63844299 C-48.9933844 86.545638 -50.46434527 89.45826149 -51.91821289 92.38110352 C-57.54441391 103.49299777 -64.72474208 116.259549 -76.375 121.97265625 C-79.12514782 122.83626974 -81.37137873 123.07734612 -84.25 123.08984375 C-85.13300781 123.10660156 -86.01601563 123.12335938 -86.92578125 123.140625 C-90.93813339 122.65664478 -94.19489852 121.29765025 -97.9375 119.77734375 C-93.58408585 110.71540311 -88.93039117 101.87904919 -83.9375 93.15234375 C-78.7668098 84.11296858 -73.80738089 74.98060187 -68.9375 65.77734375 C-63.57420909 55.64504527 -58.09192278 45.59968487 -52.38769531 35.65356445 C-49.56030063 30.71006097 -46.86345291 25.73302912 -44.2956543 20.65014648 C-39.47632248 11.14632645 -33.69239991 0.84607155 -23.04296875 -2.88671875 C-14.92507274 -4.18196746 -7.16762405 -4.29190392 0 0 Z " fill="#131313" transform="translate(647.9375,399.22265625)"/>
<path d="M0 0 C1.99651786 3.54055741 3.99027477 7.0826531 5.98144531 10.6262207 C6.659717 11.83238025 7.338752 13.03811088 8.01855469 14.2434082 C8.99352676 15.9723492 9.9655604 17.7029462 10.9375 19.43359375 C11.81728516 20.99678345 11.81728516 20.99678345 12.71484375 22.59155273 C14 25 14 25 14 26 C0.47 26 -13.06 26 -27 26 C-27 17.5889573 -25.42477838 13.32733702 -19.75 7.25 C-13.44883588 1.37876605 -8.47453457 -0.22092113 0 0 Z " fill="#141414" transform="translate(642,448)"/>
<path d="M0 0 C2.31 0 4.62 0 7 0 C7 0.99 7 1.98 7 3 C3.37 3 -0.26 3 -4 3 C-2.68 2.67 -1.36 2.34 0 2 C0 1.34 0 0.68 0 0 Z " fill="#EE8E55" transform="translate(476,243)"/>
</svg>
