<?xml version="1.0" encoding="UTF-8"?>
<svg version="1.1" xmlns="http://www.w3.org/2000/svg" width="948" height="622">
<path d="M0 0 C312.84 0 625.68 0 948 0 C948 205.26 948 410.52 948 622 C635.16 622 322.32 622 0 622 C0 416.74 0 211.48 0 0 Z " fill="#FEFEFE" transform="translate(0,0)"/>
<path d="M0 0 C2.21397833 -0.0073495 4.42795284 -0.01593828 6.641922 -0.02566528 C12.63006794 -0.04780472 18.61807595 -0.0508155 24.6062572 -0.04891777 C29.62276989 -0.04879764 34.63925381 -0.05737958 39.65575844 -0.06569529 C52.18188091 -0.08600108 64.70793663 -0.08708979 77.23406488 -0.07988816 C88.06357759 -0.07432424 98.89285289 -0.09509654 109.72231018 -0.12824863 C120.88619317 -0.16215443 132.04998993 -0.17666042 143.21393162 -0.1725316 C149.46372801 -0.17047549 155.71328823 -0.17576535 161.96304131 -0.20042419 C167.85085264 -0.22288836 173.7381752 -0.22065165 179.62598991 -0.20049667 C181.7699472 -0.19712039 183.91393866 -0.20202691 186.05784988 -0.21648026 C214.81573722 -0.39675681 240.20234991 7.0527026 262.04125977 26.41992188 C263.08733398 27.3403125 263.08733398 27.3403125 264.15454102 28.27929688 C279.27932021 42.46446053 288.06091312 61.33828595 292.04125977 81.41992188 C292.21762341 82.29197014 292.39398705 83.1640184 292.57569504 84.06249237 C293.15966573 88.27380888 293.18601835 92.38090673 293.18170166 96.6270752 C293.18615834 98.00427239 293.18615834 98.00427239 293.19070506 99.40929174 C293.19936608 102.48120378 293.20089813 105.55307673 293.20239258 108.625 C293.20702269 110.82974327 293.21204761 113.03448575 293.21743774 115.23922729 C293.23054747 121.22722405 293.23700424 127.2152096 293.2414484 133.20321846 C293.24438218 136.94787369 293.24848763 140.69252587 293.25295258 144.43717957 C293.26505965 154.82063898 293.27544161 165.20409624 293.27882767 175.58756256 C293.27904723 176.25151011 293.2792668 176.91545766 293.27949302 177.59952483 C293.2797113 178.26499804 293.27992957 178.93047126 293.28015447 179.61611032 C293.28059792 180.96445116 293.28104448 182.31279198 293.28149414 183.66113281 C293.28171557 184.3299464 293.281937 184.99875998 293.28216514 185.68784064 C293.28610775 196.5094643 293.30354637 207.3310204 293.32685366 218.15261799 C293.35063192 229.28349823 293.36277511 240.41435044 293.36419559 251.54525709 C293.3652412 257.78648241 293.37109696 264.02761245 293.3890152 270.26881409 C293.40555924 276.14574258 293.40762068 282.02250483 293.39887619 287.89944839 C293.39810913 290.04795402 293.40240448 292.19646882 293.41233444 294.34495163 C293.4621311 305.79748372 293.15721519 316.31990032 290.04125977 327.41992188 C289.74535383 328.53466511 289.74535383 328.53466511 289.44347 329.67192841 C282.47049261 354.5844424 265.58331176 375.58241165 243.2355957 388.46044922 C229.09884104 396.1053663 212.97952452 400.5768635 196.92349243 400.56036377 C196.01493921 400.56333489 195.10638598 400.56630601 194.17030084 400.56936717 C191.13069573 400.5780275 188.09113013 400.57956019 185.05151367 400.58105469 C182.86971961 400.58568491 180.68792635 400.59070985 178.50613403 400.59609985 C172.57998449 400.60921003 166.65384627 400.61566665 160.7276845 400.62011051 C157.02053584 400.62304473 153.31339025 400.6271503 149.60624313 400.63161469 C137.32713602 400.64607427 125.04803738 400.65540309 112.76892252 400.6594812 C112.10743151 400.65970396 111.44594049 400.65992673 110.7644043 400.66015625 C109.7709427 400.66048839 109.7709427 400.66048839 108.75741117 400.66082725 C97.38303992 400.66501203 86.00875167 400.68515596 74.63440764 400.70981717 C64.27828154 400.73148639 53.92218415 400.74152372 43.56603563 400.74285769 C37.38846225 400.74390238 31.21098522 400.74973788 25.03343582 400.76767731 C19.21395494 400.78424769 13.3946419 400.7862702 7.57514572 400.7775383 C5.45005593 400.77677259 3.32495678 400.78104847 1.19989014 400.79099655 C-30.21036205 400.9293018 -56.56530768 392.95735208 -79.64624023 371.16992188 C-94.13880134 356.01256439 -101.45599216 338.65608174 -105.95874023 318.41992188 C-106.13036053 317.73772489 -106.30198082 317.0555279 -106.47880173 316.35265827 C-107.13185199 312.36209644 -107.10331664 308.4596322 -107.09918213 304.42240906 C-107.10215325 303.51471026 -107.10512437 302.60701146 -107.10818553 301.67180663 C-107.1168594 298.62909547 -107.11837971 295.58642372 -107.11987305 292.54370117 C-107.12450236 290.36205461 -107.12952717 288.18040885 -107.13491821 285.99876404 C-107.1480383 280.06842318 -107.15448709 274.13809365 -107.15892887 268.20774055 C-107.16186185 264.49841965 -107.16596722 260.78910183 -107.17043304 257.07978249 C-107.18489653 244.79476722 -107.19422294 232.50976044 -107.19829956 220.22473743 C-107.19852232 219.56268101 -107.19874509 218.90062459 -107.19897461 218.21850586 C-107.19919604 217.55563262 -107.19941747 216.89275939 -107.19964561 216.20979909 C-107.20382933 204.82863543 -107.22396938 193.44755479 -107.24863553 182.06641835 C-107.27030521 171.70606616 -107.28034213 161.34574267 -107.28167605 150.98536807 C-107.28272083 144.80442636 -107.28855804 138.62358094 -107.30649567 132.44266319 C-107.32306653 126.61909172 -107.32508832 120.79568797 -107.31635666 114.97210121 C-107.31559094 112.84539971 -107.31986696 110.71868887 -107.32981491 108.5920105 C-107.46803725 77.17615602 -99.50066237 50.81811304 -77.70874023 27.73242188 C-66.19551343 16.72416116 -52.03619786 8.06225146 -36.52042484 4.09430695 C-34.87904295 3.66219932 -33.24819217 3.18636697 -31.63575649 2.65636444 C-21.25915963 -0.48333727 -10.72981273 -0.01687967 0 0 Z " fill="#FEFEFE" transform="translate(387.958740234375,91.580078125)"/>
<path d="M0 0 C22.34877665 -0.56991869 58.0450515 7.80080407 75.15332031 22.9909668 C78.99316406 27.23316319 78.99316406 27.23316319 78.99316406 30.07299805 C75.47119196 30.15304287 72.37334937 30.11305506 68.99316406 29.07299805 C68.99316406 30.72299805 68.99316406 32.37299805 68.99316406 34.07299805 C69.71375 34.3153418 70.43433594 34.55768555 71.17675781 34.80737305 C78.22161881 37.97316356 84.22473456 44.3926003 87.99316406 51.07299805 C87.66316406 51.73299805 87.33316406 52.39299805 86.99316406 53.07299805 C86.00316406 52.74299805 85.01316406 52.41299805 83.99316406 52.07299805 C86.46816406 55.53799805 86.46816406 55.53799805 88.99316406 59.07299805 C85.36316406 58.08299805 81.73316406 57.09299805 77.99316406 56.07299805 C78.69441406 56.8722168 79.39566406 57.67143555 80.11816406 58.49487305 C95.94150531 76.73213395 95.94150531 76.73213395 98.99316406 86.07299805 C98.56763215 91.49852996 98.56763215 91.49852996 95.99316406 94.07299805 C94.11816406 94.13549805 94.11816406 94.13549805 91.99316406 93.07299805 C89.07325153 88.73484229 88.04088637 86.31160957 86.99316406 81.07299805 C86.99316406 91.30299805 86.99316406 101.53299805 86.99316406 112.07299805 C86.33316406 112.07299805 85.67316406 112.07299805 84.99316406 112.07299805 C84.83460938 111.20416992 84.67605469 110.3353418 84.51269531 109.44018555 C82.74836278 100.15296088 82.74836278 100.15296088 76.99316406 93.07299805 C74.68287321 92.33040456 72.34741207 91.66156005 69.99316406 91.07299805 C64.36290878 87.53772147 62.09424596 82.23719351 59.18066406 76.51049805 C55.83024468 70.66368775 50.23927838 66.44652149 43.99316406 64.07299805 C42.47427783 63.94350153 40.95293269 63.84101473 39.43066406 63.76049805 C37.07910156 63.58081055 37.07910156 63.58081055 34.99316406 63.07299805 C33.78660156 61.61893555 33.78660156 61.61893555 32.55566406 60.13549805 C29.43944621 56.41123768 27.73218003 55.99896895 23.07128906 55.31518555 C6.41249743 54.00446844 -6.38574985 57.38190301 -21.96020508 62.98583984 C-23.8993345 63.68140999 -25.84150433 64.36787519 -27.78417969 65.0534668 C-29.50495728 65.67064575 -29.50495728 65.67064575 -31.26049805 66.30029297 C-34.00683594 67.07299805 -34.00683594 67.07299805 -36.00683594 66.07299805 C-31.05683594 63.10299805 -26.10683594 60.13299805 -21.00683594 57.07299805 C-36.58586068 60.96775423 -58.24442434 67.72525732 -67.74902344 81.61987305 C-76.72015702 98.13390004 -78.81831445 117.94220799 -74.38183594 136.13549805 C-68.43612033 155.1081114 -56.93969322 170.46482114 -39.56933594 180.32299805 C-37.72666199 181.26255355 -35.87222226 182.17938421 -34.00683594 183.07299805 C-33.08386719 183.52545898 -32.16089844 183.97791992 -31.20996094 184.4440918 C-15.01903766 191.81752577 6.7492243 194.39293691 23.99316406 189.07299805 C24.84394531 188.82807617 25.69472656 188.5831543 26.57128906 188.33081055 C33.54914908 186.0779586 39.27159256 182.60440747 45.34082031 178.5847168 C46.65373047 177.83641602 46.65373047 177.83641602 47.99316406 177.07299805 C48.65316406 177.40299805 49.31316406 177.73299805 49.99316406 178.07299805 C48.65983073 179.40633138 47.3264974 180.73966471 45.99316406 182.07299805 C45.29191406 182.79487305 44.59066406 183.51674805 43.86816406 184.26049805 C43.43761719 184.67686523 43.00707031 185.09323242 42.56347656 185.5222168 C41.35378113 186.71686627 40.19013351 187.95826667 39.04785156 189.2175293 C29.69095049 198.78059937 17.81025642 201.49281453 4.74316406 201.63549805 C-24.76584001 201.10639193 -51.0498882 188.47190828 -75.00683594 172.07299805 C-60.33466003 192.27065296 -41.7050742 205.60273486 -17.00683594 211.07299805 C-13.00726595 211.59983493 -9.0375074 211.9253544 -5.00683594 212.07299805 C-5.00683594 213.06299805 -5.00683594 214.05299805 -5.00683594 215.07299805 C-19.21333683 216.23534812 -31.96015305 212.55793004 -45.00683594 207.07299805 C-44.01683594 209.54799805 -44.01683594 209.54799805 -43.00683594 212.07299805 C-56.61321883 208.01421613 -67.61481666 199.41844517 -78.00683594 190.07299805 C-79.21263271 189.1322378 -80.42047196 188.19407879 -81.63183594 187.26049805 C-91.96548997 178.28249665 -101.67693679 164.0626955 -106.00683594 151.07299805 C-106.33683594 153.38299805 -106.66683594 155.69299805 -107.00683594 158.07299805 C-113.9010063 147.73174251 -116.34444144 134.2582968 -117.00683594 122.07299805 C-117.05066406 121.30616699 -117.09449219 120.53933594 -117.13964844 119.74926758 C-118.57412266 90.09749001 -108.8103843 60.32010433 -88.85058594 38.10424805 C-68.20880063 15.83136799 -38.84806148 2.44311397 -8.56933594 0.19799805 C-5.71142949 0.09482453 -2.85700035 0.10392252 0 0 Z " fill="#EC7936" transform="translate(488.0068359375,181.927001953125)"/>
<path d="M0 0 C2.22282756 -0.00379178 4.44565275 -0.00929884 6.66847229 -0.01637268 C12.65605449 -0.03023164 18.64334625 -0.0192254 24.63091207 -0.00266147 C30.92544686 0.01128327 37.2199664 0.00471835 43.51451111 0.00120544 C54.07970585 -0.00148907 64.64479944 0.01182487 75.20996094 0.03515625 C86.0430118 0.05907597 96.87591184 0.0661553 107.70898438 0.05566406 C120.81958385 0.04298962 133.93010812 0.04558679 147.04070854 0.06132317 C152.02633738 0.06705201 157.01191572 0.06702487 161.99754524 0.06225777 C167.8771195 0.05745374 173.75648747 0.06773045 179.63602257 0.08921242 C181.78207326 0.0947338 183.92814396 0.09528888 186.07419586 0.09025955 C203.22284124 0.05513779 218.50532504 1.41844453 234.39428711 8.50170898 C235.52479492 8.99413086 236.65530273 9.48655273 237.82006836 9.99389648 C262.038321 21.25444109 279.36465245 41.70293969 288.92944336 66.36108398 C294.4302318 81.82102584 294.68743186 97.02051455 294.65307617 113.24780273 C294.6557911 115.414318 294.65935484 117.58083235 294.66369629 119.74734497 C294.67276285 125.5944002 294.66929981 131.44138433 294.66293812 137.2884407 C294.65784831 143.42911205 294.66257782 149.56977761 294.66571045 155.71044922 C294.66934143 166.0194609 294.66457379 176.32844386 294.6550293 186.63745117 C294.64414644 198.52877956 294.64767263 210.42003935 294.65868211 222.31136608 C294.66777973 232.55042956 294.66902817 242.78947248 294.66380477 253.0285387 C294.66069867 259.13100622 294.66023817 265.23344157 294.66687775 271.33590698 C294.67268667 277.07503317 294.66858979 282.81407155 294.65708923 288.55318832 C294.65446154 290.65009287 294.6551751 292.74700491 294.65961456 294.8439064 C294.68677127 308.98244555 294.51327968 322.85524929 289.83178711 336.37670898 C289.57349121 337.12791016 289.31519531 337.87911133 289.04907227 338.65307617 C281.00701017 360.95726935 265.00376615 379.79177771 244.39428711 391.50170898 C243.80905273 391.83589844 243.22381836 392.17008789 242.62084961 392.5144043 C232.53449382 398.18013216 222.74912946 401.40378926 211.39428711 403.50170898 C210.51815167 403.67793384 209.64201624 403.85415869 208.73933125 404.03572369 C204.514955 404.62420538 200.39118479 404.64979526 196.13139343 404.64888 C195.20721156 404.65255669 194.2830297 404.65623338 193.33084232 404.66002148 C190.23829675 404.67102209 187.14578483 404.67489607 184.05322266 404.67871094 C181.83364252 404.68497852 179.61406343 404.69162558 177.39448547 404.69862366 C170.10666633 404.71963833 162.81884705 404.73002635 155.53100586 404.73999023 C153.01716412 404.74403931 150.50332249 404.74815628 147.98948097 404.75234032 C137.52625074 404.76920776 127.06302162 404.78384022 116.59978008 404.79108906 C113.88764634 404.79299865 111.17551261 404.79491903 108.46337891 404.796875 C107.45236708 404.79760061 107.45236708 404.79760061 106.42093078 404.79834088 C95.52371391 404.80662572 84.62660736 404.83193745 73.72943857 404.86445568 C62.51605787 404.8976418 51.30271689 404.91521643 40.08928329 404.9187333 C33.80377412 404.92107612 27.5184393 404.92993598 21.23297691 404.95519447 C15.31086243 404.97860796 9.38903543 404.98265527 3.46688652 404.97243309 C1.30512278 404.97194077 -0.85665576 404.97817031 -3.0183754 404.99198914 C-18.95007989 405.08805116 -33.71202216 403.64694363 -48.48071289 397.18920898 C-49.18212402 396.88998535 -49.88353516 396.59076172 -50.60620117 396.2824707 C-73.57313907 386.19517621 -92.58786961 366.67956608 -102.48071289 343.63061523 C-106.76431473 331.71684761 -109.75559753 319.88788462 -109.75288391 307.20085144 C-109.7565606 306.27258602 -109.76023729 305.3443206 -109.76402539 304.38792592 C-109.77502644 301.28156085 -109.77890005 298.17522927 -109.78271484 295.06884766 C-109.78898239 292.83941543 -109.79562945 290.60998425 -109.80262756 288.3805542 C-109.8236426 281.06026941 -109.83403026 273.73998447 -109.84399414 266.41967773 C-109.8480432 263.89469199 -109.85216017 261.36970636 -109.85634422 258.84472084 C-109.8732117 248.33516745 -109.88784418 237.82561517 -109.89509296 227.31605053 C-109.89700256 224.59188523 -109.89892293 221.86771995 -109.90087891 219.14355469 C-109.90136265 218.46655619 -109.90184639 217.78955769 -109.90234479 217.09204409 C-109.91062973 206.14632851 -109.93594163 195.20072275 -109.96845958 184.25505503 C-110.0016449 172.99194999 -110.01922026 161.72889841 -110.02273721 150.46573812 C-110.02508011 144.1522836 -110.03394098 137.83900266 -110.05919838 131.52559471 C-110.0826106 125.57721577 -110.08665968 119.62912305 -110.076437 113.68070984 C-110.07594465 111.50927079 -110.08217509 109.33781703 -110.09599304 107.16642189 C-110.28754625 75.25368458 -100.17506847 49.44288261 -77.60571289 26.50170898 C-55.22693707 6.14038541 -29.28727209 -0.14386225 0 0 Z M-86.35571289 38.81420898 C-100.51245579 56.81789289 -107.74597057 77.96968048 -107.75961304 100.82633972 C-107.76399529 101.73307397 -107.76837754 102.63980821 -107.77289259 103.57401925 C-107.78618813 106.59573513 -107.79243862 109.61742191 -107.79858398 112.63916016 C-107.80649252 114.81313709 -107.81476193 116.98711274 -107.82336426 119.16108704 C-107.84950681 126.28893799 -107.86488844 133.41679457 -107.87915039 140.54467773 C-107.88451407 143.00704768 -107.88989159 145.4694176 -107.89528275 147.93178749 C-107.91690388 158.18406129 -107.93563573 168.43633357 -107.94690514 178.68862438 C-107.96311302 193.33289841 -107.99622287 207.97682892 -108.05330598 222.62101382 C-108.09215574 232.94328622 -108.1115558 243.26548778 -108.1168257 253.58783132 C-108.12045978 259.73934683 -108.13227238 265.8905775 -108.16492844 272.04201317 C-108.19527294 277.84109609 -108.20122782 283.63972574 -108.18954468 289.43887138 C-108.1893261 291.55058747 -108.19744838 293.66232624 -108.21519852 295.77396774 C-108.45071128 325.44141847 -100.34413795 352.02257243 -79.44946289 373.68530273 C-61.45788552 391.76879893 -37.42121147 402.48816015 -11.80818874 402.65410078 C-10.97424356 402.65459853 -10.14029839 402.65509629 -9.28108215 402.65560913 C-8.37434791 402.65999138 -7.46761366 402.66437364 -6.53340262 402.66888869 C-3.51168675 402.68218422 -0.48999997 402.68843472 2.53173828 402.69458008 C4.70571522 402.70248861 6.87969086 402.71075802 9.05366516 402.71936035 C16.18151612 402.7455029 23.3093727 402.76088453 30.43725586 402.77514648 C32.89962581 402.78051016 35.36199573 402.78588768 37.82436562 402.79127884 C48.07663942 402.81289997 58.3289117 402.83163182 68.58120251 402.84290123 C83.22547653 402.85910912 97.86940704 402.89221897 112.51359195 402.94930208 C122.83586435 402.98815184 133.15806591 403.0075519 143.48040944 403.01282179 C149.63192495 403.01645588 155.78315562 403.02826847 161.93459129 403.06092453 C167.73367421 403.09126904 173.53230387 403.09722392 179.33144951 403.08554077 C181.4431656 403.0853222 183.55490437 403.09344447 185.66654587 403.11119461 C214.31458318 403.33861484 239.65563748 395.78001533 261.39428711 376.50170898 C262.09166992 375.88811523 262.78905273 375.27452148 263.50756836 374.64233398 C279.63503609 359.51677307 291.51400456 335.64756115 292.48636663 313.39440787 C292.52554838 310.98268163 292.53239032 308.57288523 292.52799988 306.1608429 C292.53026543 305.24044588 292.53253099 304.32004886 292.5348652 303.37176102 C292.54117779 300.29828353 292.54037759 297.22485044 292.53955078 294.15136719 C292.54254402 291.94323164 292.54594693 289.73509662 292.54972839 287.52696228 C292.55855673 281.53502383 292.56090604 275.54309966 292.56154418 269.55115533 C292.56225545 265.80466771 292.56439124 262.05818372 292.5670414 258.31169701 C292.57581439 245.90755918 292.58046159 233.50342829 292.57971092 221.09928773 C292.57967097 220.43133723 292.57963101 219.76338673 292.57958984 219.07519531 C292.57954896 218.40642261 292.57950808 217.73764991 292.57946596 217.04861137 C292.57905983 206.21924987 292.58862219 195.3899232 292.60272821 184.56057177 C292.61712054 173.42288849 292.62381401 162.28521956 292.62313443 151.14752644 C292.62287991 144.90193223 292.62570564 138.65637743 292.63631248 132.4107914 C292.64602209 126.53306081 292.64605302 120.65540708 292.63879585 114.77767372 C292.63775351 112.62671801 292.640092 110.47575744 292.64615631 108.32481003 C292.72776379 77.36101465 284.60716958 52.55132567 263.14428711 29.81420898 C245.18543357 12.64302446 221.04581213 2.34918488 196.13139343 2.35453796 C195.20721156 2.35086128 194.2830297 2.34718459 193.33084232 2.34339648 C190.23829675 2.33239587 187.14578483 2.3285219 184.05322266 2.32470703 C181.83364252 2.31843945 179.61406343 2.31179239 177.39448547 2.30479431 C170.10666633 2.28377964 162.81884705 2.27339162 155.53100586 2.26342773 C153.01716412 2.25937866 150.50332249 2.25526169 147.98948097 2.25107765 C137.52625074 2.23421021 127.06302162 2.21957775 116.59978008 2.21232891 C113.88764634 2.21041932 111.17551261 2.20849894 108.46337891 2.20654297 C107.78937102 2.20605923 107.11536314 2.20557549 106.42093078 2.20507709 C95.52371391 2.19679225 84.62660736 2.17148052 73.72943857 2.13896229 C62.51605787 2.10577617 51.30271689 2.08820154 40.08928329 2.08468467 C33.80377412 2.08234185 27.5184393 2.07348199 21.23297691 2.0482235 C15.31086243 2.02481001 9.38903543 2.0207627 3.46688652 2.03098488 C1.30512278 2.03147719 -0.85665576 2.02524766 -3.0183754 2.01142883 C-36.28546797 1.81084112 -64.4885352 13.35857137 -86.35571289 38.81420898 Z " fill="#D9DBE1" transform="translate(388.605712890625,89.498291015625)"/>
</svg>
